{"accessors" : [{"bufferView" : 0, "byteOffset" : 0, "componentType" : 5123, "count" : 27855, "type" : "SCALAR", "max" : [23342], "min" : [0]}, {"bufferView" : 1, "byteOffset" : 0, "componentType" : 5126, "count" : 23343, "type" : "VEC3", "max" : [2565.191162109375, 2681.302734375, 6130.69677734375], "min" : [-3615.31396484375, 1343.1431884765625, -4633.935546875], "name" : "POSITION"}, {"bufferView" : 1, "byteOffset" : 12, "componentType" : 5126, "count" : 23343, "type" : "VEC3", "max" : [0.8626008629798889, 0.9995152354240417, 0.9248467087745667], "min" : [-0.7974922060966492, 0.2481413334608078, -0.846206784248352], "name" : "NORMAL"}, {"bufferView" : 1, "byteOffset" : 24, "componentType" : 5126, "count" : 23343, "type" : "VEC2", "max" : [0.5667866468429565, 1], "min" : [0.3141070306301117, 0.2650226950645447], "name" : "TEXCOORD_0"}, {"bufferView" : 1, "byteOffset" : 32, "componentType" : 5126, "count" : 23343, "type" : "VEC2", "max" : [0.5674247741699219, 0.9984754323959351], "min" : [0.31601157784461975, 0.2653135061264038], "name" : "TEXCOORD_1"}], "asset" : {"generator" : "Aspose.3D 23.4.0", "version" : "2.0"}, "buffers" : [{"uri" : "data:application/octet-stream;base64,", "byteLength" : 1169920}], "bufferViews" : [{"buffer" : 0, "byteOffset" : 0, "byteLength" : 55712, "target" : 34963}, {"buffer" : 0, "byteOffset" : 55716, "byteLength" : 1114200, "byteStride" : 40, "target" : 34962}], "meshes" : [{"primitives" : [{"attributes" : {"POSITION" : 1, "NORMAL" : 2, "TEXCOORD_0" : 3, "TEXCOORD_1" : 4}, "indices" : 0, "mode" : 4}]}], "nodes" : [{"matrix" : [0.0010000000474974513, 0, 0, 0, 0, 0.0010000000474974513, 0, 0, 0, 0, 0.0010000000474974513, 0, 0, 0, 0, 1], "mesh" : 0, "name" : "EXPORT_GOOGLE_SAT_WM"}], "scene" : 0, "scenes" : [{"nodes" : [0]}]}